<?xml version="1.0" standalone="no"?><!DOCTYPE svg PUBLIC "-//W3C//DTD SVG 1.1//EN" "http://www.w3.org/Graphics/SVG/1.1/DTD/svg11.dtd"><svg t="1610617815076" class="icon" viewBox="0 0 1160 1024" version="1.1" xmlns="http://www.w3.org/2000/svg" p-id="1195" xmlns:xlink="http://www.w3.org/1999/xlink" width="226.5625" height="200"><defs><style type="text/css"></style></defs><path d="M812.464356 28.307911C765.769956 108.361956 689.9712 147.911111 580.266667 147.911111c-109.704533 0-185.503289-39.549156-232.197689-119.6032a34.133333 34.133333 0 0 0-39.185067-15.519289l-273.066667 80.782222A34.133333 34.133333 0 0 0 11.377778 126.316089V409.6l0.136533 3.185778a34.133333 34.133333 0 0 0 37.774222 30.72l165.387378-18.386489-21.230933 552.049778A34.133333 34.133333 0 0 0 227.555556 1012.622222h705.422222l3.185778-0.136533a34.133333 34.133333 0 0 0 30.9248-35.316622l-21.185423-550.5024 164.067556 24.484977a34.133333 34.133333 0 0 0 39.185067-33.769244V126.293333a34.133333 34.133333 0 0 0-24.439467-32.745244l-273.066667-80.782222a34.133333 34.133333 0 0 0-39.185066 15.519289z m44.396088 57.207467L1080.888889 151.779556v225.985422l-165.637689-24.689778-3.003733-0.295822a34.133333 34.133333 0 0 0-36.135823 35.384889l21.390223 556.191289H263.008711l21.390222-556.191289v-3.094756a34.133333 34.133333 0 0 0-37.865244-32.1536l-166.889245 18.545778V151.779556l224.005689-66.264178 2.639645 3.754666C366.819556 173.647644 459.343644 216.177778 580.266667 216.177778c120.923022 0 213.447111-42.552889 273.976889-126.907734l2.616888-3.754666z" fill="#3A465C" p-id="1196"></path><path d="M386.844444 762.424889c0 19.410489 13.607822 34.019556 31.698489 34.019555h323.447467c18.090667 0 31.698489-14.609067 31.698489-34.019555 0-19.410489-13.607822-34.019556-31.698489-34.019556H420.772978c-18.090667-2.389333-33.928533 14.609067-33.928534 34.019556" fill="#3A465C" p-id="1197"></path></svg>