<?xml version="1.0" standalone="no"?><!DOCTYPE svg PUBLIC "-//W3C//DTD SVG 1.1//EN" "http://www.w3.org/Graphics/SVG/1.1/DTD/svg11.dtd"><svg t="1610618827504" class="icon" viewBox="0 0 1202 1024" version="1.1" xmlns="http://www.w3.org/2000/svg" p-id="2123" xmlns:xlink="http://www.w3.org/1999/xlink" width="234.765625" height="200"><defs><style type="text/css"></style></defs><path d="M601.049358 0c-85.21459 0-167.312659 27.959646-243.422556 82.476504-70.500159 50.509902-133.253536 121.855974-186.768655 211.923432C64.117301 474.022853 3.634531 712.347671 0.00601 965.943442c-0.222609 15.226431 5.854607 29.918602 16.918258 40.804165A60.549552 60.549552 0 0 0 59.442519 1023.999777h1083.213678c16.027823 0 31.343298-6.233042 42.518251-17.25217 11.06365-10.907824 17.140866-25.599994 16.918258-40.781904-3.650782-253.662554-64.11129-491.96511-170.852137-671.565767-53.515119-90.067459-116.290757-161.41353-186.768655-211.923432C768.317496 27.959646 686.219426 0 601.049358 0z m0.044522 66.782594c70.366593 0 138.685187 22.973212 203.686912 68.919637 62.664334 44.299121 119.518583 108.098759 168.692833 189.796133l6.388868 10.751998c94.675458 162.482052 149.704315 376.63157 155.269532 605.695868l0.178086 9.861563H66.877648L66.788605 957.217183c3.494956-239.883078 61.217378-464.428421 161.92553-631.718819 49.196511-81.697374 106.028499-145.497012 168.737354-189.796133C462.386432 89.755807 530.705026 66.782594 601.071619 66.782594z" fill="#3A465C" p-id="2124"></path><path d="M500.875467 267.130377c18.431996 0 33.391297 15.916518 33.391297 35.550601v507.681281c0 19.634083-14.959301 35.550601-33.391297 35.550601s-33.391297-15.916518-33.391297-35.550601V302.680978c0-19.634083 14.959301-35.550601 33.391297-35.550601z m200.347782 0c18.431996 0 33.391297 15.916518 33.391297 35.550601v507.681281c0 19.634083-14.959301 35.550601-33.391297 35.550601s-33.391297-15.916518-33.391297-35.550601V302.680978c0-19.634083 14.959301-35.550601 33.391297-35.550601z" fill="#3A465C" p-id="2125"></path><path d="M601.049358 233.73908c-55.540857 0-109.189541 16.517562-158.942574 48.751293-45.968686 29.762776-86.817372 71.679984-121.4998 124.438234-68.251811 103.846934-106.807629 240.907078-109.122759 386.359568a63.443464 63.443464 0 0 0 17.185388 44.52173 60.994769 60.994769 0 0 0 44.365903 19.233387h656.027684a60.994769 60.994769 0 0 0 44.365903-19.233387 63.443464 63.443464 0 0 0 17.185388-44.52173c-2.31513-145.45249-40.870948-282.512634-109.122759-386.359568-34.682427-52.758249-75.531114-94.675458-121.4998-124.438234-49.753033-32.233732-103.401717-48.751294-158.942574-48.751293z m0 66.782594c42.384686 0 83.478243 12.666432 122.657365 38.021557 37.84347 24.486951 72.191984 59.770422 101.95476 105.071281l5.832347 9.082433c55.474075 88.642763 88.063981 204.621869 92.026414 328.792972l0.222609 8.770781H278.333602l-0.066782 4.073738c2.114782-133.275797 37.175644-258.003422 98.170413-350.719924 29.762776-45.278599 64.11129-80.58433 101.95476-105.071281 39.179122-25.377386 80.272678-38.021557 122.657365-38.021557z" fill="#3A465C" p-id="2126"></path></svg>