<?xml version="1.0" standalone="no"?><!DOCTYPE svg PUBLIC "-//W3C//DTD SVG 1.1//EN" "http://www.w3.org/Graphics/SVG/1.1/DTD/svg11.dtd"><svg t="1610618849414" class="icon" viewBox="0 0 1024 1024" version="1.1" xmlns="http://www.w3.org/2000/svg" p-id="2640" xmlns:xlink="http://www.w3.org/1999/xlink" width="200" height="200"><defs><style type="text/css"></style></defs><path d="M440.279292 306.864262a25.180328 25.180328 0 0 1 28.470557 18.331279l0.503607 2.366951 16.786885 100.721311a25.180328 25.180328 0 0 1-49.168787 10.659672l-0.503606-2.36695-16.786886-100.721312a25.180328 25.180328 0 0 1 20.69823-28.990951zM566.063423 306.864262a25.180328 25.180328 0 0 0-28.470557 18.331279l-0.503607 2.366951-16.786885 100.721311a25.180328 25.180328 0 0 0 49.168787 10.659672l0.503606-2.36695 16.786885-100.721312a25.180328 25.180328 0 0 0-20.698229-28.990951z" fill="#3A465C" p-id="2641"></path><path d="M525.002702 826.921967h-41.060722l-12.758032 8.628459-3.978492 2.736263c-30.300328 21.420066-57.511869 51.938623-63.43764 85.898491l-0.386098 2.518033a71.109246 71.109246 0 0 0 21.822951 63.958033l-1.007213-1.175082 2.920918 3.021639c0.956852 0.923279 1.930492 1.846557 3.172721 2.887345l2.820197 2.350163c19.002754 14.82282 42.437246 17.726951 65.838164 8.880263l4.179934-1.729049 0.604328 0.26859c25.683934 11.096131 51.871475 7.97377 72.401836-9.769967a73.694426 73.694426 0 0 0 6.093639-5.892197l2.702689-3.004853c13.177705-15.192131 20.798951-33.842361 18.667016-55.430295l-0.26859-2.09836c-4.196721-37.904787-29.712787-65.938885-64.965246-92.10964l-13.36236-9.937836z m-16.652591 50.360656l6.060066 4.700328 4.767475 3.928131c14.033836 11.985836 32.130098 30.72 34.110951 48.61482 1.141508 7.268721-1.77941 13.463082-6.043278 18.566295l-2.685902 2.937705-1.259016 1.175082-1.494033 1.191868c-5.136787 3.659541-14.302426 5.942557-30.887869-7.520524-5.136787-4.096-10.273574-4.096-15.410361 0-16.585443 13.463082-25.767869 11.180066-30.904655 7.520524l-1.494033-1.175082-1.24223-1.175081-1.024-1.091148c-6.429377-5.438951-8.99777-12.254426-7.721967-20.429639 2.350164-19.825311 26.959738-43.024787 42.034361-54.255213l4.196721-2.988066h8.99777z" fill="#3A465C" p-id="2642"></path><path d="M565.945915 675.84a50.360656 50.360656 0 0 1 50.192787 54.557377l-7.11764 85.310951a67.147541 67.147541 0 0 1-66.912524 61.574295h-77.874361a67.147541 67.147541 0 0 1-66.912525-61.574295l-7.117639-85.327738a50.360656 50.360656 0 0 1 50.192787-54.54059h125.565902z m0 50.360656h-125.549115l7.117639 85.327737a16.786885 16.786885 0 0 0 14.738886 15.276066l1.980852 0.117508h77.874361a16.786885 16.786885 0 0 0 16.451147-13.429508l0.285377-1.964066 7.100853-85.327737z" fill="#3A465C" p-id="2643"></path><path d="M510.717062 409.835016l-6.546885-1.762623-6.546885 1.762623c-22.998033 6.177574-44.938492 16.736525-67.030033 31.290754-50.864262 35.923934-74.365902 85.814557-69.464131 147.590296l1.577967 17.005114 1.107935 10.575738 1.175081 9.988197 1.259017 9.434229 1.342951 8.863476 0.705049 4.247082 1.494033 8.057705c0.251803 1.309377 0.503607 2.601967 0.788983 3.860983l1.661902 7.302295c0.856131 3.525246 1.762623 6.865836 2.736262 10.021771l1.99764 6.093639c11.364721 32.180459 29.494557 43.343738 61.372852 43.729836h4.028852l10.911476-0.285377h100.654164l9.736393 0.285377h3.995279c35.957508-0.436459 54.49023-14.419934 65.552787-56.521442l1.729049-7.084066 1.611541-7.587672 1.51082-8.091279 1.376524-8.645246 1.309377-9.182426 1.208656-9.75318 0.587541-5.086427 1.107934-10.626098 1.057574-11.213639c6.765115-63.387279-15.997902-115.275541-65.854951-152.189902-23.233049-15.343213-45.156721-25.902164-68.154754-32.079738z m-6.563672 50.562099l5.002492 1.695475c13.463082 4.868197 26.959738 11.918689 40.892852 21.084328 33.070164 24.542426 48.312656 57.411148 45.022427 100.956328l-2.283017 24.559213-1.712262 16.400787-1.259016 10.441443-0.839345 6.127213-0.872918 5.522885-1.326164 7.168-0.923278 4.096-0.956853 3.592393-0.503606 1.611541-1.040787 2.887345c-2.484459 6.244721-5.455738 9.014557-9.350295 10.189639l-1.745836 0.419672a19.926033 19.926033 0 0 1-0.906492 0.134295l-1.913705 0.184656-2.064787 0.067147-6.983344-0.067147-5.556459-0.184656-102.433574-0.016787-10.323934 0.26859h-3.424525l-2.014426-0.067147-1.896918-0.167869-1.745836-0.335738a14.386361 14.386361 0 0 1-0.839345-0.235016l-1.594754-0.604328c-3.575607-1.678689-6.311869-5.187148-8.645246-12.422295l-0.973639-3.323803a89.977705 89.977705 0 0 1-0.470033-1.846558l-0.923278-4.079213-0.872919-4.616393-0.872918-5.203935-0.839344-5.774688-1.259016-9.887476-1.259017-11.415082-1.745836-17.810885-0.923278-10.088918c-4.985705-46.801836 10.374295-80.912787 47.204721-106.932459 13.379148-8.813115 26.758295-15.779672 40.20459-20.631082l4.968918-1.695475z" fill="#3A465C" p-id="2644"></path><path d="M234.891751 0.285377c21.336131 1.863344 46.785049 20.681443 69.262688 44.636328 28.336262 30.18282 45.86177 70.320262 52.878689 119.690492l0.436459 3.642754 0.201443 2.09836 8.141639-2.249442 5.841836-1.460459c16.300066-3.709902 29.007738-5.422164 38.979147-4.901771 18.633443 0.973639 34.245246 10.374295 34.748853 31.106099 0.050361 2.568393 0.083934 4.968918 0.083934 7.403016l-0.167869 7.604459-0.201442 4.247082c-0.587541 11.079344-1.913705 22.712656-4.196721 34.799213-6.211148 32.935869-18.465574 64.646295-38.458755 93.267935-19.657443 28.168393-61.406426 63.958033-93.419016 78.730491-7.134426 82.322885 18.902033 122.544262 80.14059 131.29023a25.180328 25.180328 0 1 1-7.117639 49.857049c-89.020852-12.724459-130.870557-76.279607-123.568262-180.391869-34.127738-12.254426-84.018361-40.42282-103.390427-61.792524C129.570833 329.694426 115.536997 298.286164 105.968472 258.182295 89.987357 191.370492 110.333062 100.822033 170.044013 41.211803l5.506098-5.321442 9.451017-9.853902C202.963095 7.218361 215.38539-1.426885 234.891751 0.285377zM232.172275 50.914623l-1.460459 1.091147-2.551606 2.148722-3.072 2.904131-11.280787 11.75082-3.189508 3.223082-1.51082 1.443672C159.988669 119.707279 142.530308 194.526426 154.952603 246.481836c7.772328 32.600131 18.549508 56.689311 37.468328 77.55541 7.940197 8.779541 27.026885 21.520787 49.622033 33.170885l3.474885 1.762623c2.501246 1.259016 4.968918 2.450885 7.403017 3.60918l7.134426 3.29023 6.664393 2.904131 6.043279 2.450885 2.753049 1.040787 4.767476 1.678689c1.426885 0.48682 2.685902 0.839344 3.693114 1.124721l0.671476 0.117508a50.864262 50.864262 0 0 0 7.537311-3.558819c6.966557-3.860984 15.57823-9.736393 24.659935-16.820459 18.532721-14.487082 36.175738-31.827934 44.30059-43.461246 15.595016-22.326557 25.297836-47.439738 30.266754-73.778361l1.242229-7.268721c0.738623-4.801049 1.29259-9.501377 1.678689-14.100984l0.218229-2.836984-4.817836 0.906492-6.882623 1.477246-6.009705 1.544394-31.391475 9.031344-5.38859 1.309377-1.645115 0.167869-5.489311 0.134295-6.932984-2.350164a95.181639 95.181639 0 0 1-1.712262-0.637902l-2.719476-1.124721a13.09377 13.09377 0 0 1-5.036065-3.793836l-2.400525-3.088787-2.249442-3.978492-0.772197-1.812983a34.580984 34.580984 0 0 1-1.77941-7.352656l-0.470033-4.096-0.453246-7.889836-0.470032-10.45823-0.285378-4.784262-0.302163-3.55882a40.171016 40.171016 0 0 0-0.167869-1.326164c-5.640393-39.633836-18.96918-70.16918-39.751345-92.294295-4.179934-4.465311-8.72918-8.796328-13.160918-12.674098l-5.254295-4.431738a173.844984 173.844984 0 0 0-2.534819-2.014426l-4.784263-3.592393a55.228852 55.228852 0 0 0-9.182426-5.623607l-0.335738-0.134295zM772.491751 0.21823c-21.319344 1.846557-46.785049 20.664656-69.262689 44.61954-28.319475 30.199607-45.86177 70.337049-52.878688 119.690492l-0.436459 3.642754-0.201443 2.115148-8.141639-2.249443-5.841836-1.460459c-16.283279-3.726689-28.990951-5.422164-38.979148-4.90177-18.633443 0.956852-34.245246 10.374295-34.748852 31.089311-0.050361 2.58518-0.083934 4.985705-0.067148 7.419804l0.167869 7.587672c0.033574 1.342951 0.100721 2.769836 0.167869 4.263869 0.604328 11.079344 1.947279 22.712656 4.213508 34.782426 6.211148 32.952656 18.482361 64.663082 38.458754 93.284721 19.67423 28.168393 61.423213 63.941246 93.419017 78.730492 7.134426 82.322885-18.902033 122.544262-80.140591 131.273443a25.180328 25.180328 0 0 0 7.11764 49.857049c89.037639-12.707672 130.870557-76.26282 123.568262-180.375082 34.127738-12.254426 84.018361-40.42282 103.390426-61.809312 25.516066-28.151607 39.549902-59.559869 49.135213-99.663737 15.947541-66.82859-4.381377-157.360262-64.092327-216.970492l-5.489312-5.321443-9.451016-9.870688C804.437193 7.151213 791.998111-1.494033 772.491751 0.21823z m2.719475 50.629245l1.460459 1.074361 2.568394 2.165508 3.055213 2.887345 11.280787 11.767606 3.189508 3.223082 1.51082 1.443672c49.135213 46.214295 66.576787 121.033443 54.171278 173.00564-7.789115 32.583344-18.549508 56.672525-37.468328 77.555409-7.956984 8.779541-27.060459 21.504-49.638819 33.154099l-3.474886 1.77941c-2.501246 1.24223-4.968918 2.450885-7.386229 3.60918l-7.134426 3.273443-6.681181 2.904131-6.043278 2.467672-2.736263 1.040787-4.784262 1.678688c-1.426885 0.470033-2.669115 0.839344-3.693115 1.107935l-0.671475 0.134295a50.864262 50.864262 0 0 1-7.537312-3.575607c-6.94977-3.860984-15.561443-9.719607-24.659934-16.820459-18.515934-14.470295-36.175738-31.827934-44.30059-43.444459-15.57823-22.326557-25.297836-47.439738-30.266754-73.778361l-1.24223-7.268721a214.066361 214.066361 0 0 1-1.678688-14.100983l-0.21823-2.853771 4.834623 0.923279 6.849049 1.477246 6.043279 1.544393 31.391475 9.014557 5.371804 1.309378 1.645115 0.167868 5.489311 0.134295 6.932984-2.350163a95.181639 95.181639 0 0 0 1.712262-0.621115l2.719475-1.124722a13.09377 13.09377 0 0 0 5.036066-3.793836l2.400524-3.105573 2.249443-3.961705 0.772197-1.829771 0.402885-1.175082a34.580984 34.580984 0 0 0 1.393312-6.177574l0.453245-4.079213 0.453246-7.889836 0.48682-10.458229 0.26859-4.784263 0.318951-3.558819c0.050361-0.503607 0.100721-0.940066 0.167869-1.326164 5.623607-39.650623 18.96918-70.16918 39.734557-92.311082 4.196721-4.465311 8.72918-8.779541 13.177705-12.657312l5.254295-4.431737c0.839344-0.705049 1.695475-1.376525 2.518033-2.014427l4.784262-3.592393a55.228852 55.228852 0 0 1 9.182427-5.623607l0.335737-0.134295z" fill="#3A465C" p-id="2645"></path></svg>